<svg xmlns="http://www.w3.org/2000/svg" viewBox="0 0 36 36" shape-rendering="crispEdges">
  <rect width="36" height="36" fill="#26286B"/>
  <rect x="4" y="3" width="1" height="1" fill="#000"/><rect x="5" y="3" width="1" height="1" fill="#000"/><rect x="6" y="3" width="1" height="1" fill="#000"/><rect x="9" y="3" width="1" height="1" fill="#000"/><rect x="10" y="3" width="1" height="1" fill="#000"/><rect x="11" y="3" width="1" height="1" fill="#000"/><rect x="3" y="4" width="1" height="1" fill="#000"/><rect x="4" y="4" width="1" height="1" fill="#fff"/><rect x="5" y="4" width="1" height="1" fill="#fff"/><rect x="6" y="4" width="1" height="1" fill="#fff"/><rect x="7" y="4" width="1" height="1" fill="#000"/><rect x="8" y="4" width="1" height="1" fill="#000"/><rect x="9" y="4" width="1" height="1" fill="#fff"/><rect x="10" y="4" width="1" height="1" fill="#fff"/><rect x="11" y="4" width="1" height="1" fill="#fff"/><rect x="12" y="4" width="1" height="1" fill="#000"/><rect x="2" y="5" width="1" height="1" fill="#000"/><rect x="3" y="5" width="1" height="1" fill="#fff"/><rect x="4" y="5" width="1" height="1" fill="#fff"/><rect x="5" y="5" width="1" height="1" fill="#fff"/><rect x="6" y="5" width="1" height="1" fill="#fff"/><rect x="7" y="5" width="1" height="1" fill="#fff"/><rect x="8" y="5" width="1" height="1" fill="#fff"/><rect x="9" y="5" width="1" height="1" fill="#fff"/><rect x="10" y="5" width="1" height="1" fill="#fff"/><rect x="11" y="5" width="1" height="1" fill="#fff"/><rect x="12" y="5" width="1" height="1" fill="#fff"/><rect x="13" y="5" width="1" height="1" fill="#000"/><rect x="2" y="6" width="1" height="1" fill="#000"/><rect x="3" y="6" width="1" height="1" fill="#fff"/><rect x="4" y="6" width="1" height="1" fill="#fff"/><rect x="5" y="6" width="1" height="1" fill="#fff"/><rect x="6" y="6" width="1" height="1" fill="#fff"/><rect x="7" y="6" width="1" height="1" fill="#fff"/><rect x="8" y="6" width="1" height="1" fill="#fff"/><rect x="9" y="6" width="1" height="1" fill="#fff"/><rect x="10" y="6" width="1" height="1" fill="#fff"/><rect x="11" y="6" width="1" height="1" fill="#fff"/><rect x="12" y="6" width="1" height="1" fill="#fff"/><rect x="13" y="6" width="1" height="1" fill="#000"/><rect x="3" y="7" width="1" height="1" fill="#000"/><rect x="4" y="7" width="1" height="1" fill="#fff"/><rect x="5" y="7" width="1" height="1" fill="#000"/><rect x="6" y="7" width="1" height="1" fill="#fff"/><rect x="7" y="7" width="1" height="1" fill="#fff"/><rect x="8" y="7" width="1" height="1" fill="#fff"/><rect x="9" y="7" width="1" height="1" fill="#000"/><rect x="10" y="7" width="1" height="1" fill="#fff"/><rect x="11" y="7" width="1" height="1" fill="#fff"/><rect x="12" y="7" width="1" height="1" fill="#000"/><rect x="13" y="7" width="1" height="1" fill="#000"/><rect x="14" y="7" width="1" height="1" fill="#000"/><rect x="15" y="7" width="1" height="1" fill="#000"/><rect x="3" y="8" width="1" height="1" fill="#000"/><rect x="4" y="8" width="1" height="1" fill="#FFB627"/><rect x="5" y="8" width="1" height="1" fill="#fff"/><rect x="6" y="8" width="1" height="1" fill="#FFB627"/><rect x="7" y="8" width="1" height="1" fill="#FFB627"/><rect x="8" y="8" width="1" height="1" fill="#FFB627"/><rect x="9" y="8" width="1" height="1" fill="#FFB627"/><rect x="10" y="8" width="1" height="1" fill="#fff"/><rect x="11" y="8" width="1" height="1" fill="#FFB627"/><rect x="12" y="8" width="1" height="1" fill="#000"/><rect x="13" y="8" width="1" height="1" fill="#C77700"/><rect x="14" y="8" width="1" height="1" fill="#C77700"/><rect x="15" y="8" width="1" height="1" fill="#FFB627"/><rect x="16" y="8" width="1" height="1" fill="#000"/><rect x="3" y="9" width="1" height="1" fill="#000"/><rect x="4" y="9" width="1" height="1" fill="#FFB627"/><rect x="5" y="9" width="1" height="1" fill="#FFB627"/><rect x="6" y="9" width="1" height="1" fill="#FFB627"/><rect x="7" y="9" width="1" height="1" fill="#FFB627"/><rect x="8" y="9" width="1" height="1" fill="#FFB627"/><rect x="9" y="9" width="1" height="1" fill="#FFB627"/><rect x="10" y="9" width="1" height="1" fill="#FFB627"/><rect x="11" y="9" width="1" height="1" fill="#FFB627"/><rect x="12" y="9" width="1" height="1" fill="#000"/><rect x="13" y="9" width="1" height="1" fill="#000"/><rect x="14" y="9" width="1" height="1" fill="#000"/><rect x="15" y="9" width="1" height="1" fill="#C77700"/><rect x="16" y="9" width="1" height="1" fill="#FFB627"/><rect x="17" y="9" width="1" height="1" fill="#000"/><rect x="3" y="10" width="1" height="1" fill="#000"/><rect x="4" y="10" width="1" height="1" fill="#FFB627"/><rect x="5" y="10" width="1" height="1" fill="#000"/><rect x="6" y="10" width="1" height="1" fill="#000"/><rect x="7" y="10" width="1" height="1" fill="#FFB627"/><rect x="8" y="10" width="1" height="1" fill="#FFB627"/><rect x="9" y="10" width="1" height="1" fill="#FFB627"/><rect x="10" y="10" width="1" height="1" fill="#000"/><rect x="11" y="10" width="1" height="1" fill="#000"/><rect x="12" y="10" width="1" height="1" fill="#000"/><rect x="15" y="10" width="1" height="1" fill="#000"/><rect x="16" y="10" width="1" height="1" fill="#FFB627"/><rect x="17" y="10" width="1" height="1" fill="#000"/><rect x="3" y="11" width="1" height="1" fill="#000"/><rect x="4" y="11" width="1" height="1" fill="#FFB627"/><rect x="5" y="11" width="1" height="1" fill="#000"/><rect x="6" y="11" width="1" height="1" fill="#000"/><rect x="7" y="11" width="1" height="1" fill="#FFB627"/><rect x="8" y="11" width="1" height="1" fill="#FFB627"/><rect x="9" y="11" width="1" height="1" fill="#FFB627"/><rect x="10" y="11" width="1" height="1" fill="#000"/><rect x="11" y="11" width="1" height="1" fill="#000"/><rect x="12" y="11" width="1" height="1" fill="#000"/><rect x="15" y="11" width="1" height="1" fill="#000"/><rect x="16" y="11" width="1" height="1" fill="#FFB627"/><rect x="17" y="11" width="1" height="1" fill="#000"/><rect x="3" y="12" width="1" height="1" fill="#000"/><rect x="4" y="12" width="1" height="1" fill="#FFB627"/><rect x="5" y="12" width="1" height="1" fill="#FFB627"/><rect x="6" y="12" width="1" height="1" fill="#FFB627"/><rect x="7" y="12" width="1" height="1" fill="#FFB627"/><rect x="8" y="12" width="1" height="1" fill="#FFB627"/><rect x="9" y="12" width="1" height="1" fill="#FFB627"/><rect x="10" y="12" width="1" height="1" fill="#FFB627"/><rect x="11" y="12" width="1" height="1" fill="#FFB627"/><rect x="12" y="12" width="1" height="1" fill="#000"/><rect x="13" y="12" width="1" height="1" fill="#000"/><rect x="14" y="12" width="1" height="1" fill="#000"/><rect x="15" y="12" width="1" height="1" fill="#C77700"/><rect x="16" y="12" width="1" height="1" fill="#FFB627"/><rect x="17" y="12" width="1" height="1" fill="#000"/><rect x="3" y="13" width="1" height="1" fill="#000"/><rect x="4" y="13" width="1" height="1" fill="#FFB627"/><rect x="5" y="13" width="1" height="1" fill="#FFE08A"/><rect x="6" y="13" width="1" height="1" fill="#000"/><rect x="7" y="13" width="1" height="1" fill="#FFB627"/><rect x="8" y="13" width="1" height="1" fill="#FFB627"/><rect x="9" y="13" width="1" height="1" fill="#FFB627"/><rect x="10" y="13" width="1" height="1" fill="#000"/><rect x="11" y="13" width="1" height="1" fill="#FFE08A"/><rect x="12" y="13" width="1" height="1" fill="#000"/><rect x="13" y="13" width="1" height="1" fill="#C77700"/><rect x="14" y="13" width="1" height="1" fill="#C77700"/><rect x="15" y="13" width="1" height="1" fill="#FFB627"/><rect x="16" y="13" width="1" height="1" fill="#000"/><rect x="3" y="14" width="1" height="1" fill="#000"/><rect x="4" y="14" width="1" height="1" fill="#FFB627"/><rect x="5" y="14" width="1" height="1" fill="#FFB627"/><rect x="6" y="14" width="1" height="1" fill="#FFB627"/><rect x="7" y="14" width="1" height="1" fill="#000"/><rect x="8" y="14" width="1" height="1" fill="#000"/><rect x="9" y="14" width="1" height="1" fill="#000"/><rect x="10" y="14" width="1" height="1" fill="#FFB627"/><rect x="11" y="14" width="1" height="1" fill="#FFB627"/><rect x="12" y="14" width="1" height="1" fill="#000"/><rect x="13" y="14" width="1" height="1" fill="#000"/><rect x="14" y="14" width="1" height="1" fill="#000"/><rect x="15" y="14" width="1" height="1" fill="#000"/><rect x="3" y="15" width="1" height="1" fill="#000"/><rect x="4" y="15" width="1" height="1" fill="#C77700"/><rect x="5" y="15" width="1" height="1" fill="#FFB627"/><rect x="6" y="15" width="1" height="1" fill="#FFB627"/><rect x="7" y="15" width="1" height="1" fill="#FFB627"/><rect x="8" y="15" width="1" height="1" fill="#FFB627"/><rect x="9" y="15" width="1" height="1" fill="#FFB627"/><rect x="10" y="15" width="1" height="1" fill="#FFB627"/><rect x="11" y="15" width="1" height="1" fill="#C77700"/><rect x="12" y="15" width="1" height="1" fill="#000"/><rect x="3" y="16" width="1" height="1" fill="#000"/><rect x="4" y="16" width="1" height="1" fill="#000"/><rect x="5" y="16" width="1" height="1" fill="#000"/><rect x="6" y="16" width="1" height="1" fill="#000"/><rect x="7" y="16" width="1" height="1" fill="#000"/><rect x="8" y="16" width="1" height="1" fill="#000"/><rect x="9" y="16" width="1" height="1" fill="#000"/><rect x="10" y="16" width="1" height="1" fill="#000"/><rect x="11" y="16" width="1" height="1" fill="#000"/><rect x="12" y="16" width="1" height="1" fill="#000"/><rect x="20" y="3" width="1" height="1" fill="#000"/><rect x="21" y="3" width="1" height="1" fill="#000"/><rect x="22" y="3" width="1" height="1" fill="#000"/><rect x="23" y="3" width="1" height="1" fill="#000"/><rect x="24" y="3" width="1" height="1" fill="#000"/><rect x="25" y="3" width="1" height="1" fill="#000"/><rect x="26" y="3" width="1" height="1" fill="#000"/><rect x="27" y="3" width="1" height="1" fill="#000"/><rect x="28" y="3" width="1" height="1" fill="#000"/><rect x="29" y="3" width="1" height="1" fill="#000"/><rect x="30" y="3" width="1" height="1" fill="#000"/><rect x="31" y="3" width="1" height="1" fill="#000"/><rect x="19" y="4" width="1" height="1" fill="#000"/><rect x="20" y="4" width="1" height="1" fill="#FFE04A"/><rect x="21" y="4" width="1" height="1" fill="#FFE04A"/><rect x="22" y="4" width="1" height="1" fill="#FFE04A"/><rect x="23" y="4" width="1" height="1" fill="#FFE04A"/><rect x="24" y="4" width="1" height="1" fill="#FFE04A"/><rect x="25" y="4" width="1" height="1" fill="#FFE04A"/><rect x="26" y="4" width="1" height="1" fill="#FFE04A"/><rect x="27" y="4" width="1" height="1" fill="#FFE04A"/><rect x="28" y="4" width="1" height="1" fill="#FFE04A"/><rect x="29" y="4" width="1" height="1" fill="#FFE04A"/><rect x="30" y="4" width="1" height="1" fill="#FFE04A"/><rect x="31" y="4" width="1" height="1" fill="#FFE04A"/><rect x="32" y="4" width="1" height="1" fill="#000"/><rect x="18" y="5" width="1" height="1" fill="#000"/><rect x="19" y="5" width="1" height="1" fill="#FFE04A"/><rect x="20" y="5" width="1" height="1" fill="#FFE04A"/><rect x="21" y="5" width="1" height="1" fill="#FFE04A"/><rect x="22" y="5" width="1" height="1" fill="#FFE04A"/><rect x="23" y="5" width="1" height="1" fill="#FFE04A"/><rect x="24" y="5" width="1" height="1" fill="#FFE04A"/><rect x="25" y="5" width="1" height="1" fill="#FFE04A"/><rect x="26" y="5" width="1" height="1" fill="#FFE04A"/><rect x="27" y="5" width="1" height="1" fill="#FFE04A"/><rect x="28" y="5" width="1" height="1" fill="#FFE04A"/><rect x="29" y="5" width="1" height="1" fill="#FFE04A"/><rect x="30" y="5" width="1" height="1" fill="#FFE04A"/><rect x="31" y="5" width="1" height="1" fill="#FFE04A"/><rect x="32" y="5" width="1" height="1" fill="#FFE04A"/><rect x="33" y="5" width="1" height="1" fill="#000"/><rect x="18" y="6" width="1" height="1" fill="#000"/><rect x="19" y="6" width="1" height="1" fill="#FFE04A"/><rect x="20" y="6" width="1" height="1" fill="#FFE04A"/><rect x="21" y="6" width="1" height="1" fill="#000"/><rect x="22" y="6" width="1" height="1" fill="#000"/><rect x="23" y="6" width="1" height="1" fill="#FFE04A"/><rect x="24" y="6" width="1" height="1" fill="#FFE04A"/><rect x="25" y="6" width="1" height="1" fill="#FFE04A"/><rect x="26" y="6" width="1" height="1" fill="#FFE04A"/><rect x="27" y="6" width="1" height="1" fill="#FFE04A"/><rect x="28" y="6" width="1" height="1" fill="#FFE04A"/><rect x="29" y="6" width="1" height="1" fill="#000"/><rect x="30" y="6" width="1" height="1" fill="#000"/><rect x="31" y="6" width="1" height="1" fill="#FFE04A"/><rect x="32" y="6" width="1" height="1" fill="#FFE04A"/><rect x="33" y="6" width="1" height="1" fill="#000"/><rect x="18" y="7" width="1" height="1" fill="#000"/><rect x="19" y="7" width="1" height="1" fill="#FFE04A"/><rect x="20" y="7" width="1" height="1" fill="#FFE04A"/><rect x="21" y="7" width="1" height="1" fill="#000"/><rect x="22" y="7" width="1" height="1" fill="#000"/><rect x="23" y="7" width="1" height="1" fill="#FFE04A"/><rect x="24" y="7" width="1" height="1" fill="#FFE04A"/><rect x="25" y="7" width="1" height="1" fill="#FFE04A"/><rect x="26" y="7" width="1" height="1" fill="#FFE04A"/><rect x="27" y="7" width="1" height="1" fill="#FFE04A"/><rect x="28" y="7" width="1" height="1" fill="#FFE04A"/><rect x="29" y="7" width="1" height="1" fill="#000"/><rect x="30" y="7" width="1" height="1" fill="#000"/><rect x="31" y="7" width="1" height="1" fill="#FFE04A"/><rect x="32" y="7" width="1" height="1" fill="#FFE04A"/><rect x="33" y="7" width="1" height="1" fill="#000"/><rect x="18" y="8" width="1" height="1" fill="#000"/><rect x="19" y="8" width="1" height="1" fill="#FFE04A"/><rect x="20" y="8" width="1" height="1" fill="#FFF3A8"/><rect x="21" y="8" width="1" height="1" fill="#FFE04A"/><rect x="22" y="8" width="1" height="1" fill="#FFE04A"/><rect x="23" y="8" width="1" height="1" fill="#FFE04A"/><rect x="24" y="8" width="1" height="1" fill="#FFE04A"/><rect x="25" y="8" width="1" height="1" fill="#FFE04A"/><rect x="26" y="8" width="1" height="1" fill="#FFE04A"/><rect x="27" y="8" width="1" height="1" fill="#FFE04A"/><rect x="28" y="8" width="1" height="1" fill="#FFE04A"/><rect x="29" y="8" width="1" height="1" fill="#FFE04A"/><rect x="30" y="8" width="1" height="1" fill="#FFE04A"/><rect x="31" y="8" width="1" height="1" fill="#FFF3A8"/><rect x="32" y="8" width="1" height="1" fill="#FFE04A"/><rect x="33" y="8" width="1" height="1" fill="#000"/><rect x="18" y="9" width="1" height="1" fill="#000"/><rect x="19" y="9" width="1" height="1" fill="#FFE04A"/><rect x="20" y="9" width="1" height="1" fill="#FFE04A"/><rect x="21" y="9" width="1" height="1" fill="#FFE04A"/><rect x="22" y="9" width="1" height="1" fill="#FFE04A"/><rect x="23" y="9" width="1" height="1" fill="#000"/><rect x="24" y="9" width="1" height="1" fill="#000"/><rect x="25" y="9" width="1" height="1" fill="#000"/><rect x="26" y="9" width="1" height="1" fill="#000"/><rect x="27" y="9" width="1" height="1" fill="#000"/><rect x="28" y="9" width="1" height="1" fill="#000"/><rect x="29" y="9" width="1" height="1" fill="#FFE04A"/><rect x="30" y="9" width="1" height="1" fill="#FFE04A"/><rect x="31" y="9" width="1" height="1" fill="#FFE04A"/><rect x="32" y="9" width="1" height="1" fill="#FFE04A"/><rect x="33" y="9" width="1" height="1" fill="#000"/><rect x="18" y="10" width="1" height="1" fill="#000"/><rect x="19" y="10" width="1" height="1" fill="#FFE04A"/><rect x="20" y="10" width="1" height="1" fill="#FFE04A"/><rect x="21" y="10" width="1" height="1" fill="#FFE04A"/><rect x="22" y="10" width="1" height="1" fill="#FFE04A"/><rect x="23" y="10" width="1" height="1" fill="#000"/><rect x="24" y="10" width="1" height="1" fill="#FF4D6D"/><rect x="25" y="10" width="1" height="1" fill="#FF4D6D"/><rect x="26" y="10" width="1" height="1" fill="#FF4D6D"/><rect x="27" y="10" width="1" height="1" fill="#FF4D6D"/><rect x="28" y="10" width="1" height="1" fill="#000"/><rect x="29" y="10" width="1" height="1" fill="#FFE04A"/><rect x="30" y="10" width="1" height="1" fill="#FFE04A"/><rect x="31" y="10" width="1" height="1" fill="#FFE04A"/><rect x="32" y="10" width="1" height="1" fill="#FFE04A"/><rect x="33" y="10" width="1" height="1" fill="#000"/><rect x="18" y="11" width="1" height="1" fill="#000"/><rect x="19" y="11" width="1" height="1" fill="#FFE04A"/><rect x="20" y="11" width="1" height="1" fill="#FFE04A"/><rect x="21" y="11" width="1" height="1" fill="#FFE04A"/><rect x="22" y="11" width="1" height="1" fill="#FFE04A"/><rect x="23" y="11" width="1" height="1" fill="#FFE04A"/><rect x="24" y="11" width="1" height="1" fill="#000"/><rect x="25" y="11" width="1" height="1" fill="#000"/><rect x="26" y="11" width="1" height="1" fill="#000"/><rect x="27" y="11" width="1" height="1" fill="#000"/><rect x="28" y="11" width="1" height="1" fill="#FFE04A"/><rect x="29" y="11" width="1" height="1" fill="#FFE04A"/><rect x="30" y="11" width="1" height="1" fill="#FFE04A"/><rect x="31" y="11" width="1" height="1" fill="#FFE04A"/><rect x="32" y="11" width="1" height="1" fill="#FFE04A"/><rect x="33" y="11" width="1" height="1" fill="#000"/><rect x="19" y="12" width="1" height="1" fill="#000"/><rect x="20" y="12" width="1" height="1" fill="#FFE04A"/><rect x="21" y="12" width="1" height="1" fill="#FFE04A"/><rect x="22" y="12" width="1" height="1" fill="#FFE04A"/><rect x="23" y="12" width="1" height="1" fill="#FFE04A"/><rect x="24" y="12" width="1" height="1" fill="#FFE04A"/><rect x="25" y="12" width="1" height="1" fill="#FFE04A"/><rect x="26" y="12" width="1" height="1" fill="#FFE04A"/><rect x="27" y="12" width="1" height="1" fill="#FFE04A"/><rect x="28" y="12" width="1" height="1" fill="#FFE04A"/><rect x="29" y="12" width="1" height="1" fill="#FFE04A"/><rect x="30" y="12" width="1" height="1" fill="#FFE04A"/><rect x="31" y="12" width="1" height="1" fill="#FFE04A"/><rect x="32" y="12" width="1" height="1" fill="#000"/><rect x="20" y="13" width="1" height="1" fill="#000"/><rect x="21" y="13" width="1" height="1" fill="#000"/><rect x="22" y="13" width="1" height="1" fill="#000"/><rect x="23" y="13" width="1" height="1" fill="#FFE04A"/><rect x="24" y="13" width="1" height="1" fill="#FFE04A"/><rect x="25" y="13" width="1" height="1" fill="#000"/><rect x="26" y="13" width="1" height="1" fill="#000"/><rect x="27" y="13" width="1" height="1" fill="#000"/><rect x="28" y="13" width="1" height="1" fill="#000"/><rect x="29" y="13" width="1" height="1" fill="#000"/><rect x="30" y="13" width="1" height="1" fill="#000"/><rect x="31" y="13" width="1" height="1" fill="#000"/><rect x="22" y="14" width="1" height="1" fill="#000"/><rect x="23" y="14" width="1" height="1" fill="#FFE04A"/><rect x="24" y="14" width="1" height="1" fill="#000"/><rect x="21" y="15" width="1" height="1" fill="#000"/><rect x="22" y="15" width="1" height="1" fill="#FFE04A"/><rect x="23" y="15" width="1" height="1" fill="#000"/><rect x="21" y="16" width="1" height="1" fill="#000"/><rect x="22" y="16" width="1" height="1" fill="#000"/><rect x="7" y="19" width="1" height="1" fill="#000"/><rect x="8" y="19" width="1" height="1" fill="#000"/><rect x="9" y="19" width="1" height="1" fill="#000"/><rect x="10" y="19" width="1" height="1" fill="#000"/><rect x="11" y="19" width="1" height="1" fill="#000"/><rect x="12" y="19" width="1" height="1" fill="#000"/><rect x="6" y="20" width="1" height="1" fill="#000"/><rect x="7" y="20" width="1" height="1" fill="#9ED9A6"/><rect x="8" y="20" width="1" height="1" fill="#9ED9A6"/><rect x="9" y="20" width="1" height="1" fill="#9ED9A6"/><rect x="10" y="20" width="1" height="1" fill="#9ED9A6"/><rect x="11" y="20" width="1" height="1" fill="#9ED9A6"/><rect x="12" y="20" width="1" height="1" fill="#9ED9A6"/><rect x="13" y="20" width="1" height="1" fill="#000"/><rect x="5" y="21" width="1" height="1" fill="#000"/><rect x="6" y="21" width="1" height="1" fill="#9ED9A6"/><rect x="7" y="21" width="1" height="1" fill="#9ED9A6"/><rect x="8" y="21" width="1" height="1" fill="#9ED9A6"/><rect x="9" y="21" width="1" height="1" fill="#9ED9A6"/><rect x="10" y="21" width="1" height="1" fill="#9ED9A6"/><rect x="11" y="21" width="1" height="1" fill="#9ED9A6"/><rect x="12" y="21" width="1" height="1" fill="#9ED9A6"/><rect x="13" y="21" width="1" height="1" fill="#9ED9A6"/><rect x="14" y="21" width="1" height="1" fill="#000"/><rect x="5" y="22" width="1" height="1" fill="#000"/><rect x="6" y="22" width="1" height="1" fill="#9ED9A6"/><rect x="7" y="22" width="1" height="1" fill="#000"/><rect x="8" y="22" width="1" height="1" fill="#000"/><rect x="9" y="22" width="1" height="1" fill="#9ED9A6"/><rect x="10" y="22" width="1" height="1" fill="#9ED9A6"/><rect x="11" y="22" width="1" height="1" fill="#000"/><rect x="12" y="22" width="1" height="1" fill="#000"/><rect x="13" y="22" width="1" height="1" fill="#9ED9A6"/><rect x="14" y="22" width="1" height="1" fill="#000"/><rect x="5" y="23" width="1" height="1" fill="#000"/><rect x="6" y="23" width="1" height="1" fill="#D4F2D9"/><rect x="7" y="23" width="1" height="1" fill="#9ED9A6"/><rect x="8" y="23" width="1" height="1" fill="#9ED9A6"/><rect x="9" y="23" width="1" height="1" fill="#9ED9A6"/><rect x="10" y="23" width="1" height="1" fill="#9ED9A6"/><rect x="11" y="23" width="1" height="1" fill="#9ED9A6"/><rect x="12" y="23" width="1" height="1" fill="#9ED9A6"/><rect x="13" y="23" width="1" height="1" fill="#D4F2D9"/><rect x="14" y="23" width="1" height="1" fill="#000"/><rect x="5" y="24" width="1" height="1" fill="#000"/><rect x="6" y="24" width="1" height="1" fill="#9ED9A6"/><rect x="7" y="24" width="1" height="1" fill="#9ED9A6"/><rect x="8" y="24" width="1" height="1" fill="#9ED9A6"/><rect x="9" y="24" width="1" height="1" fill="#000"/><rect x="10" y="24" width="1" height="1" fill="#000"/><rect x="11" y="24" width="1" height="1" fill="#9ED9A6"/><rect x="12" y="24" width="1" height="1" fill="#9ED9A6"/><rect x="13" y="24" width="1" height="1" fill="#9ED9A6"/><rect x="14" y="24" width="1" height="1" fill="#000"/><rect x="6" y="25" width="1" height="1" fill="#000"/><rect x="7" y="25" width="1" height="1" fill="#9ED9A6"/><rect x="8" y="25" width="1" height="1" fill="#9ED9A6"/><rect x="9" y="25" width="1" height="1" fill="#9ED9A6"/><rect x="10" y="25" width="1" height="1" fill="#9ED9A6"/><rect x="11" y="25" width="1" height="1" fill="#9ED9A6"/><rect x="12" y="25" width="1" height="1" fill="#9ED9A6"/><rect x="13" y="25" width="1" height="1" fill="#000"/><rect x="4" y="26" width="1" height="1" fill="#000"/><rect x="5" y="26" width="1" height="1" fill="#000"/><rect x="6" y="26" width="1" height="1" fill="#000"/><rect x="7" y="26" width="1" height="1" fill="#000"/><rect x="8" y="26" width="1" height="1" fill="#9ED9A6"/><rect x="9" y="26" width="1" height="1" fill="#9ED9A6"/><rect x="10" y="26" width="1" height="1" fill="#9ED9A6"/><rect x="11" y="26" width="1" height="1" fill="#9ED9A6"/><rect x="12" y="26" width="1" height="1" fill="#000"/><rect x="13" y="26" width="1" height="1" fill="#000"/><rect x="14" y="26" width="1" height="1" fill="#000"/><rect x="15" y="26" width="1" height="1" fill="#000"/><rect x="3" y="27" width="1" height="1" fill="#000"/><rect x="4" y="27" width="1" height="1" fill="#9ED9A6"/><rect x="5" y="27" width="1" height="1" fill="#9ED9A6"/><rect x="6" y="27" width="1" height="1" fill="#9ED9A6"/><rect x="7" y="27" width="1" height="1" fill="#9ED9A6"/><rect x="8" y="27" width="1" height="1" fill="#9ED9A6"/><rect x="9" y="27" width="1" height="1" fill="#9ED9A6"/><rect x="10" y="27" width="1" height="1" fill="#9ED9A6"/><rect x="11" y="27" width="1" height="1" fill="#9ED9A6"/><rect x="12" y="27" width="1" height="1" fill="#9ED9A6"/><rect x="13" y="27" width="1" height="1" fill="#9ED9A6"/><rect x="14" y="27" width="1" height="1" fill="#9ED9A6"/><rect x="15" y="27" width="1" height="1" fill="#9ED9A6"/><rect x="16" y="27" width="1" height="1" fill="#000"/><rect x="3" y="28" width="1" height="1" fill="#000"/><rect x="4" y="28" width="1" height="1" fill="#9ED9A6"/><rect x="5" y="28" width="1" height="1" fill="#000"/><rect x="6" y="28" width="1" height="1" fill="#9ED9A6"/><rect x="7" y="28" width="1" height="1" fill="#9ED9A6"/><rect x="8" y="28" width="1" height="1" fill="#9ED9A6"/><rect x="9" y="28" width="1" height="1" fill="#9ED9A6"/><rect x="10" y="28" width="1" height="1" fill="#9ED9A6"/><rect x="11" y="28" width="1" height="1" fill="#9ED9A6"/><rect x="12" y="28" width="1" height="1" fill="#9ED9A6"/><rect x="13" y="28" width="1" height="1" fill="#9ED9A6"/><rect x="14" y="28" width="1" height="1" fill="#000"/><rect x="15" y="28" width="1" height="1" fill="#9ED9A6"/><rect x="16" y="28" width="1" height="1" fill="#000"/><rect x="2" y="29" width="1" height="1" fill="#000"/><rect x="3" y="29" width="1" height="1" fill="#9ED9A6"/><rect x="4" y="29" width="1" height="1" fill="#9ED9A6"/><rect x="5" y="29" width="1" height="1" fill="#9ED9A6"/><rect x="6" y="29" width="1" height="1" fill="#9ED9A6"/><rect x="7" y="29" width="1" height="1" fill="#9ED9A6"/><rect x="8" y="29" width="1" height="1" fill="#9ED9A6"/><rect x="9" y="29" width="1" height="1" fill="#9ED9A6"/><rect x="10" y="29" width="1" height="1" fill="#9ED9A6"/><rect x="11" y="29" width="1" height="1" fill="#9ED9A6"/><rect x="12" y="29" width="1" height="1" fill="#9ED9A6"/><rect x="13" y="29" width="1" height="1" fill="#9ED9A6"/><rect x="14" y="29" width="1" height="1" fill="#9ED9A6"/><rect x="15" y="29" width="1" height="1" fill="#9ED9A6"/><rect x="16" y="29" width="1" height="1" fill="#9ED9A6"/><rect x="17" y="29" width="1" height="1" fill="#000"/><rect x="2" y="30" width="1" height="1" fill="#000"/><rect x="3" y="30" width="1" height="1" fill="#3E8E58"/><rect x="4" y="30" width="1" height="1" fill="#3E8E58"/><rect x="5" y="30" width="1" height="1" fill="#3E8E58"/><rect x="6" y="30" width="1" height="1" fill="#3E8E58"/><rect x="7" y="30" width="1" height="1" fill="#3E8E58"/><rect x="8" y="30" width="1" height="1" fill="#3E8E58"/><rect x="9" y="30" width="1" height="1" fill="#3E8E58"/><rect x="10" y="30" width="1" height="1" fill="#3E8E58"/><rect x="11" y="30" width="1" height="1" fill="#3E8E58"/><rect x="12" y="30" width="1" height="1" fill="#3E8E58"/><rect x="13" y="30" width="1" height="1" fill="#3E8E58"/><rect x="14" y="30" width="1" height="1" fill="#3E8E58"/><rect x="15" y="30" width="1" height="1" fill="#3E8E58"/><rect x="16" y="30" width="1" height="1" fill="#3E8E58"/><rect x="17" y="30" width="1" height="1" fill="#000"/><rect x="3" y="31" width="1" height="1" fill="#000"/><rect x="4" y="31" width="1" height="1" fill="#000"/><rect x="5" y="31" width="1" height="1" fill="#000"/><rect x="6" y="31" width="1" height="1" fill="#000"/><rect x="7" y="31" width="1" height="1" fill="#000"/><rect x="8" y="31" width="1" height="1" fill="#000"/><rect x="9" y="31" width="1" height="1" fill="#000"/><rect x="10" y="31" width="1" height="1" fill="#000"/><rect x="11" y="31" width="1" height="1" fill="#000"/><rect x="12" y="31" width="1" height="1" fill="#000"/><rect x="13" y="31" width="1" height="1" fill="#000"/><rect x="14" y="31" width="1" height="1" fill="#000"/><rect x="15" y="31" width="1" height="1" fill="#000"/><rect x="16" y="31" width="1" height="1" fill="#000"/><rect x="21" y="19" width="1" height="1" fill="#000"/><rect x="22" y="19" width="1" height="1" fill="#000"/><rect x="23" y="19" width="1" height="1" fill="#000"/><rect x="28" y="19" width="1" height="1" fill="#000"/><rect x="29" y="19" width="1" height="1" fill="#000"/><rect x="30" y="19" width="1" height="1" fill="#000"/><rect x="20" y="20" width="1" height="1" fill="#000"/><rect x="21" y="20" width="1" height="1" fill="#fff"/><rect x="22" y="20" width="1" height="1" fill="#fff"/><rect x="23" y="20" width="1" height="1" fill="#fff"/><rect x="24" y="20" width="1" height="1" fill="#000"/><rect x="27" y="20" width="1" height="1" fill="#000"/><rect x="28" y="20" width="1" height="1" fill="#fff"/><rect x="29" y="20" width="1" height="1" fill="#fff"/><rect x="30" y="20" width="1" height="1" fill="#fff"/><rect x="31" y="20" width="1" height="1" fill="#000"/><rect x="20" y="21" width="1" height="1" fill="#000"/><rect x="21" y="21" width="1" height="1" fill="#fff"/><rect x="22" y="21" width="1" height="1" fill="#000"/><rect x="23" y="21" width="1" height="1" fill="#fff"/><rect x="24" y="21" width="1" height="1" fill="#fff"/><rect x="25" y="21" width="1" height="1" fill="#000"/><rect x="26" y="21" width="1" height="1" fill="#000"/><rect x="27" y="21" width="1" height="1" fill="#fff"/><rect x="28" y="21" width="1" height="1" fill="#fff"/><rect x="29" y="21" width="1" height="1" fill="#000"/><rect x="30" y="21" width="1" height="1" fill="#fff"/><rect x="31" y="21" width="1" height="1" fill="#000"/><rect x="21" y="22" width="1" height="1" fill="#000"/><rect x="22" y="22" width="1" height="1" fill="#000"/><rect x="23" y="22" width="1" height="1" fill="#000"/><rect x="24" y="22" width="1" height="1" fill="#fff"/><rect x="25" y="22" width="1" height="1" fill="#000"/><rect x="26" y="22" width="1" height="1" fill="#000"/><rect x="27" y="22" width="1" height="1" fill="#fff"/><rect x="28" y="22" width="1" height="1" fill="#000"/><rect x="29" y="22" width="1" height="1" fill="#000"/><rect x="30" y="22" width="1" height="1" fill="#000"/><rect x="19" y="23" width="1" height="1" fill="#000"/><rect x="20" y="23" width="1" height="1" fill="#000"/><rect x="21" y="23" width="1" height="1" fill="#000"/><rect x="22" y="23" width="1" height="1" fill="#000"/><rect x="23" y="23" width="1" height="1" fill="#000"/><rect x="24" y="23" width="1" height="1" fill="#000"/><rect x="25" y="23" width="1" height="1" fill="#000"/><rect x="26" y="23" width="1" height="1" fill="#000"/><rect x="27" y="23" width="1" height="1" fill="#000"/><rect x="28" y="23" width="1" height="1" fill="#000"/><rect x="29" y="23" width="1" height="1" fill="#000"/><rect x="30" y="23" width="1" height="1" fill="#000"/><rect x="31" y="23" width="1" height="1" fill="#000"/><rect x="32" y="23" width="1" height="1" fill="#000"/><rect x="19" y="24" width="1" height="1" fill="#000"/><rect x="20" y="24" width="1" height="1" fill="#FF8FC7"/><rect x="21" y="24" width="1" height="1" fill="#FF8FC7"/><rect x="22" y="24" width="1" height="1" fill="#FF8FC7"/><rect x="23" y="24" width="1" height="1" fill="#FF8FC7"/><rect x="24" y="24" width="1" height="1" fill="#FF8FC7"/><rect x="25" y="24" width="1" height="1" fill="#000"/><rect x="26" y="24" width="1" height="1" fill="#000"/><rect x="27" y="24" width="1" height="1" fill="#FF8FC7"/><rect x="28" y="24" width="1" height="1" fill="#FF8FC7"/><rect x="29" y="24" width="1" height="1" fill="#FF8FC7"/><rect x="30" y="24" width="1" height="1" fill="#FF8FC7"/><rect x="31" y="24" width="1" height="1" fill="#FF8FC7"/><rect x="32" y="24" width="1" height="1" fill="#000"/><rect x="19" y="25" width="1" height="1" fill="#000"/><rect x="20" y="25" width="1" height="1" fill="#FF8FC7"/><rect x="21" y="25" width="1" height="1" fill="#FF8FC7"/><rect x="22" y="25" width="1" height="1" fill="#FF8FC7"/><rect x="23" y="25" width="1" height="1" fill="#FF8FC7"/><rect x="24" y="25" width="1" height="1" fill="#FF8FC7"/><rect x="25" y="25" width="1" height="1" fill="#000"/><rect x="26" y="25" width="1" height="1" fill="#000"/><rect x="27" y="25" width="1" height="1" fill="#FF8FC7"/><rect x="28" y="25" width="1" height="1" fill="#FF8FC7"/><rect x="29" y="25" width="1" height="1" fill="#FF8FC7"/><rect x="30" y="25" width="1" height="1" fill="#FF8FC7"/><rect x="31" y="25" width="1" height="1" fill="#FF8FC7"/><rect x="32" y="25" width="1" height="1" fill="#000"/><rect x="19" y="26" width="1" height="1" fill="#000"/><rect x="20" y="26" width="1" height="1" fill="#000"/><rect x="21" y="26" width="1" height="1" fill="#000"/><rect x="22" y="26" width="1" height="1" fill="#000"/><rect x="23" y="26" width="1" height="1" fill="#000"/><rect x="24" y="26" width="1" height="1" fill="#000"/><rect x="25" y="26" width="1" height="1" fill="#000"/><rect x="26" y="26" width="1" height="1" fill="#000"/><rect x="27" y="26" width="1" height="1" fill="#000"/><rect x="28" y="26" width="1" height="1" fill="#000"/><rect x="29" y="26" width="1" height="1" fill="#000"/><rect x="30" y="26" width="1" height="1" fill="#000"/><rect x="31" y="26" width="1" height="1" fill="#000"/><rect x="32" y="26" width="1" height="1" fill="#000"/><rect x="20" y="27" width="1" height="1" fill="#000"/><rect x="21" y="27" width="1" height="1" fill="#FF8FC7"/><rect x="22" y="27" width="1" height="1" fill="#FF8FC7"/><rect x="23" y="27" width="1" height="1" fill="#FF8FC7"/><rect x="24" y="27" width="1" height="1" fill="#FF8FC7"/><rect x="25" y="27" width="1" height="1" fill="#000"/><rect x="26" y="27" width="1" height="1" fill="#000"/><rect x="27" y="27" width="1" height="1" fill="#FF8FC7"/><rect x="28" y="27" width="1" height="1" fill="#FF8FC7"/><rect x="29" y="27" width="1" height="1" fill="#FF8FC7"/><rect x="30" y="27" width="1" height="1" fill="#FF8FC7"/><rect x="31" y="27" width="1" height="1" fill="#000"/><rect x="20" y="28" width="1" height="1" fill="#000"/><rect x="21" y="28" width="1" height="1" fill="#FF8FC7"/><rect x="22" y="28" width="1" height="1" fill="#FFD0E8"/><rect x="23" y="28" width="1" height="1" fill="#FF8FC7"/><rect x="24" y="28" width="1" height="1" fill="#FF8FC7"/><rect x="25" y="28" width="1" height="1" fill="#000"/><rect x="26" y="28" width="1" height="1" fill="#000"/><rect x="27" y="28" width="1" height="1" fill="#FF8FC7"/><rect x="28" y="28" width="1" height="1" fill="#FF8FC7"/><rect x="29" y="28" width="1" height="1" fill="#FF8FC7"/><rect x="30" y="28" width="1" height="1" fill="#FF8FC7"/><rect x="31" y="28" width="1" height="1" fill="#000"/><rect x="20" y="29" width="1" height="1" fill="#000"/><rect x="21" y="29" width="1" height="1" fill="#FF8FC7"/><rect x="22" y="29" width="1" height="1" fill="#FF8FC7"/><rect x="23" y="29" width="1" height="1" fill="#FF8FC7"/><rect x="24" y="29" width="1" height="1" fill="#FF8FC7"/><rect x="25" y="29" width="1" height="1" fill="#000"/><rect x="26" y="29" width="1" height="1" fill="#000"/><rect x="27" y="29" width="1" height="1" fill="#FF8FC7"/><rect x="28" y="29" width="1" height="1" fill="#FF8FC7"/><rect x="29" y="29" width="1" height="1" fill="#FF8FC7"/><rect x="30" y="29" width="1" height="1" fill="#FF8FC7"/><rect x="31" y="29" width="1" height="1" fill="#000"/><rect x="20" y="30" width="1" height="1" fill="#000"/><rect x="21" y="30" width="1" height="1" fill="#D14E92"/><rect x="22" y="30" width="1" height="1" fill="#D14E92"/><rect x="23" y="30" width="1" height="1" fill="#D14E92"/><rect x="24" y="30" width="1" height="1" fill="#D14E92"/><rect x="25" y="30" width="1" height="1" fill="#000"/><rect x="26" y="30" width="1" height="1" fill="#000"/><rect x="27" y="30" width="1" height="1" fill="#D14E92"/><rect x="28" y="30" width="1" height="1" fill="#D14E92"/><rect x="29" y="30" width="1" height="1" fill="#D14E92"/><rect x="30" y="30" width="1" height="1" fill="#D14E92"/><rect x="31" y="30" width="1" height="1" fill="#000"/><rect x="20" y="31" width="1" height="1" fill="#000"/><rect x="21" y="31" width="1" height="1" fill="#000"/><rect x="22" y="31" width="1" height="1" fill="#000"/><rect x="23" y="31" width="1" height="1" fill="#000"/><rect x="24" y="31" width="1" height="1" fill="#000"/><rect x="25" y="31" width="1" height="1" fill="#000"/><rect x="26" y="31" width="1" height="1" fill="#000"/><rect x="27" y="31" width="1" height="1" fill="#000"/><rect x="28" y="31" width="1" height="1" fill="#000"/><rect x="29" y="31" width="1" height="1" fill="#000"/><rect x="30" y="31" width="1" height="1" fill="#000"/><rect x="31" y="31" width="1" height="1" fill="#000"/>
</svg>
