<svg xmlns="http://www.w3.org/2000/svg" width="600" height="900" viewBox="0 0 600 900"><line x1="0" y1="521" x2="40" y2="453" stroke="#7E3BAE" stroke-opacity="0.11" stroke-width="1.2"/><line x1="0" y1="521" x2="90" y2="513" stroke="#7E3BAE" stroke-opacity="0.09" stroke-width="1.2"/><line x1="40" y1="453" x2="90" y2="513" stroke="#7E3BAE" stroke-opacity="0.11" stroke-width="1.2"/><line x1="236" y1="565" x2="348" y2="555" stroke="#7E3BAE" stroke-opacity="0.06" stroke-width="1.2"/><line x1="339" y1="132" x2="361" y2="210" stroke="#7E3BAE" stroke-opacity="0.10" stroke-width="1.2"/><line x1="339" y1="132" x2="355" y2="69" stroke="#7E3BAE" stroke-opacity="0.13" stroke-width="1.2"/><line x1="339" y1="132" x2="403" y2="36" stroke="#7E3BAE" stroke-opacity="0.05" stroke-width="1.2"/><line x1="91" y1="195" x2="32" y2="83" stroke="#7E3BAE" stroke-opacity="0.04" stroke-width="1.2"/><line x1="91" y1="195" x2="6" y2="217" stroke="#7E3BAE" stroke-opacity="0.09" stroke-width="1.2"/><line x1="91" y1="195" x2="41" y2="149" stroke="#7E3BAE" stroke-opacity="0.12" stroke-width="1.2"/><line x1="91" y1="195" x2="92" y2="291" stroke="#7E3BAE" stroke-opacity="0.08" stroke-width="1.2"/><line x1="91" y1="195" x2="164" y2="213" stroke="#7E3BAE" stroke-opacity="0.11" stroke-width="1.2"/><line x1="91" y1="195" x2="116" y2="80" stroke="#7E3BAE" stroke-opacity="0.05" stroke-width="1.2"/><line x1="361" y1="210" x2="385" y2="321" stroke="#7E3BAE" stroke-opacity="0.05" stroke-width="1.2"/><line x1="361" y1="210" x2="355" y2="69" stroke="#7E3BAE" stroke-opacity="0.01" stroke-width="1.2"/><line x1="583" y1="373" x2="595" y2="373" stroke="#7E3BAE" stroke-opacity="0.20" stroke-width="1.2"/><line x1="583" y1="373" x2="535" y2="346" stroke="#7E3BAE" stroke-opacity="0.14" stroke-width="1.2"/><line x1="583" y1="373" x2="512" y2="269" stroke="#7E3BAE" stroke-opacity="0.03" stroke-width="1.2"/><line x1="385" y1="321" x2="512" y2="269" stroke="#7E3BAE" stroke-opacity="0.02" stroke-width="1.2"/><line x1="32" y1="83" x2="6" y2="217" stroke="#7E3BAE" stroke-opacity="0.02" stroke-width="1.2"/><line x1="32" y1="83" x2="41" y2="149" stroke="#7E3BAE" stroke-opacity="0.12" stroke-width="1.2"/><line x1="32" y1="83" x2="116" y2="80" stroke="#7E3BAE" stroke-opacity="0.10" stroke-width="1.2"/><line x1="361" y1="722" x2="491" y2="785" stroke="#7E3BAE" stroke-opacity="0.01" stroke-width="1.2"/><line x1="361" y1="722" x2="503" y2="695" stroke="#7E3BAE" stroke-opacity="0.01" stroke-width="1.2"/><line x1="6" y1="217" x2="41" y2="149" stroke="#7E3BAE" stroke-opacity="0.11" stroke-width="1.2"/><line x1="6" y1="217" x2="92" y2="291" stroke="#7E3BAE" stroke-opacity="0.05" stroke-width="1.2"/><line x1="41" y1="149" x2="164" y2="213" stroke="#7E3BAE" stroke-opacity="0.02" stroke-width="1.2"/><line x1="41" y1="149" x2="116" y2="80" stroke="#7E3BAE" stroke-opacity="0.07" stroke-width="1.2"/><line x1="92" y1="291" x2="164" y2="213" stroke="#7E3BAE" stroke-opacity="0.07" stroke-width="1.2"/><line x1="62" y1="762" x2="119" y2="660" stroke="#7E3BAE" stroke-opacity="0.05" stroke-width="1.2"/><line x1="62" y1="762" x2="117" y2="746" stroke="#7E3BAE" stroke-opacity="0.14" stroke-width="1.2"/><line x1="595" y1="373" x2="535" y2="346" stroke="#7E3BAE" stroke-opacity="0.12" stroke-width="1.2"/><line x1="595" y1="373" x2="512" y2="269" stroke="#7E3BAE" stroke-opacity="0.02" stroke-width="1.2"/><line x1="554" y1="132" x2="512" y2="269" stroke="#7E3BAE" stroke-opacity="0.01" stroke-width="1.2"/><line x1="554" y1="132" x2="514" y2="49" stroke="#7E3BAE" stroke-opacity="0.08" stroke-width="1.2"/><line x1="90" y1="513" x2="119" y2="660" stroke="#7E3BAE" stroke-opacity="0.00" stroke-width="1.2"/><line x1="500" y1="845" x2="491" y2="785" stroke="#7E3BAE" stroke-opacity="0.13" stroke-width="1.2"/><line x1="500" y1="845" x2="504" y2="835" stroke="#7E3BAE" stroke-opacity="0.20" stroke-width="1.2"/><line x1="355" y1="69" x2="403" y2="36" stroke="#7E3BAE" stroke-opacity="0.13" stroke-width="1.2"/><line x1="535" y1="346" x2="512" y2="269" stroke="#7E3BAE" stroke-opacity="0.10" stroke-width="1.2"/><line x1="579" y1="712" x2="491" y2="785" stroke="#7E3BAE" stroke-opacity="0.05" stroke-width="1.2"/><line x1="579" y1="712" x2="503" y2="695" stroke="#7E3BAE" stroke-opacity="0.11" stroke-width="1.2"/><line x1="579" y1="712" x2="546" y2="654" stroke="#7E3BAE" stroke-opacity="0.12" stroke-width="1.2"/><line x1="579" y1="712" x2="504" y2="835" stroke="#7E3BAE" stroke-opacity="0.01" stroke-width="1.2"/><line x1="403" y1="36" x2="514" y2="49" stroke="#7E3BAE" stroke-opacity="0.06" stroke-width="1.2"/><line x1="491" y1="785" x2="503" y2="695" stroke="#7E3BAE" stroke-opacity="0.09" stroke-width="1.2"/><line x1="491" y1="785" x2="546" y2="654" stroke="#7E3BAE" stroke-opacity="0.01" stroke-width="1.2"/><line x1="491" y1="785" x2="504" y2="835" stroke="#7E3BAE" stroke-opacity="0.14" stroke-width="1.2"/><line x1="164" y1="213" x2="116" y2="80" stroke="#7E3BAE" stroke-opacity="0.01" stroke-width="1.2"/><line x1="119" y1="660" x2="117" y2="746" stroke="#7E3BAE" stroke-opacity="0.09" stroke-width="1.2"/><line x1="503" y1="695" x2="546" y2="654" stroke="#7E3BAE" stroke-opacity="0.13" stroke-width="1.2"/><line x1="503" y1="695" x2="504" y2="835" stroke="#7E3BAE" stroke-opacity="0.01" stroke-width="1.2"/><circle cx="0" cy="521" r="2.2" fill="#fff" opacity=".85"/><circle cx="0" cy="521" r="1.2" fill="#7E3BAE" opacity=".5"/><circle cx="40" cy="453" r="3.3" fill="#fff" opacity=".85"/><circle cx="40" cy="453" r="1.2" fill="#7E3BAE" opacity=".5"/><circle cx="236" cy="565" r="1.5" fill="#fff" opacity=".85"/><circle cx="236" cy="565" r="1.2" fill="#7E3BAE" opacity=".5"/><circle cx="339" cy="132" r="2.7" fill="#fff" opacity=".85"/><circle cx="339" cy="132" r="1.2" fill="#7E3BAE" opacity=".5"/><circle cx="91" cy="195" r="2.1" fill="#fff" opacity=".85"/><circle cx="91" cy="195" r="1.2" fill="#7E3BAE" opacity=".5"/><circle cx="361" cy="210" r="3.4" fill="#fff" opacity=".85"/><circle cx="361" cy="210" r="1.2" fill="#7E3BAE" opacity=".5"/><circle cx="583" cy="373" r="2.2" fill="#fff" opacity=".85"/><circle cx="583" cy="373" r="1.2" fill="#7E3BAE" opacity=".5"/><circle cx="385" cy="321" r="2.6" fill="#fff" opacity=".85"/><circle cx="385" cy="321" r="1.2" fill="#7E3BAE" opacity=".5"/><circle cx="32" cy="83" r="2.1" fill="#fff" opacity=".85"/><circle cx="32" cy="83" r="1.2" fill="#7E3BAE" opacity=".5"/><circle cx="361" cy="722" r="2.7" fill="#fff" opacity=".85"/><circle cx="361" cy="722" r="1.2" fill="#7E3BAE" opacity=".5"/><circle cx="6" cy="217" r="1.8" fill="#fff" opacity=".85"/><circle cx="6" cy="217" r="1.2" fill="#7E3BAE" opacity=".5"/><circle cx="41" cy="149" r="2.0" fill="#fff" opacity=".85"/><circle cx="41" cy="149" r="1.2" fill="#7E3BAE" opacity=".5"/><circle cx="92" cy="291" r="3.4" fill="#fff" opacity=".85"/><circle cx="92" cy="291" r="1.2" fill="#7E3BAE" opacity=".5"/><circle cx="62" cy="762" r="2.5" fill="#fff" opacity=".85"/><circle cx="62" cy="762" r="1.2" fill="#7E3BAE" opacity=".5"/><circle cx="595" cy="373" r="1.9" fill="#fff" opacity=".85"/><circle cx="595" cy="373" r="1.2" fill="#7E3BAE" opacity=".5"/><circle cx="554" cy="132" r="2.0" fill="#fff" opacity=".85"/><circle cx="554" cy="132" r="1.2" fill="#7E3BAE" opacity=".5"/><circle cx="90" cy="513" r="2.3" fill="#fff" opacity=".85"/><circle cx="90" cy="513" r="1.2" fill="#7E3BAE" opacity=".5"/><circle cx="500" cy="845" r="2.6" fill="#fff" opacity=".85"/><circle cx="500" cy="845" r="1.2" fill="#7E3BAE" opacity=".5"/><circle cx="355" cy="69" r="3.2" fill="#fff" opacity=".85"/><circle cx="355" cy="69" r="1.2" fill="#7E3BAE" opacity=".5"/><circle cx="535" cy="346" r="2.9" fill="#fff" opacity=".85"/><circle cx="535" cy="346" r="1.2" fill="#7E3BAE" opacity=".5"/><circle cx="579" cy="712" r="3.5" fill="#fff" opacity=".85"/><circle cx="579" cy="712" r="1.2" fill="#7E3BAE" opacity=".5"/><circle cx="403" cy="36" r="2.8" fill="#fff" opacity=".85"/><circle cx="403" cy="36" r="1.2" fill="#7E3BAE" opacity=".5"/><circle cx="491" cy="785" r="3.1" fill="#fff" opacity=".85"/><circle cx="491" cy="785" r="1.2" fill="#7E3BAE" opacity=".5"/><circle cx="348" cy="555" r="2.9" fill="#fff" opacity=".85"/><circle cx="348" cy="555" r="1.2" fill="#7E3BAE" opacity=".5"/><circle cx="164" cy="213" r="1.9" fill="#fff" opacity=".85"/><circle cx="164" cy="213" r="1.2" fill="#7E3BAE" opacity=".5"/><circle cx="119" cy="660" r="1.8" fill="#fff" opacity=".85"/><circle cx="119" cy="660" r="1.2" fill="#7E3BAE" opacity=".5"/><circle cx="512" cy="269" r="1.7" fill="#fff" opacity=".85"/><circle cx="512" cy="269" r="1.2" fill="#7E3BAE" opacity=".5"/><circle cx="187" cy="898" r="1.8" fill="#fff" opacity=".85"/><circle cx="187" cy="898" r="1.2" fill="#7E3BAE" opacity=".5"/><circle cx="503" cy="695" r="3.4" fill="#fff" opacity=".85"/><circle cx="503" cy="695" r="1.2" fill="#7E3BAE" opacity=".5"/><circle cx="546" cy="654" r="1.7" fill="#fff" opacity=".85"/><circle cx="546" cy="654" r="1.2" fill="#7E3BAE" opacity=".5"/><circle cx="514" cy="49" r="2.0" fill="#fff" opacity=".85"/><circle cx="514" cy="49" r="1.2" fill="#7E3BAE" opacity=".5"/><circle cx="117" cy="746" r="3.5" fill="#fff" opacity=".85"/><circle cx="117" cy="746" r="1.2" fill="#7E3BAE" opacity=".5"/><circle cx="504" cy="835" r="2.4" fill="#fff" opacity=".85"/><circle cx="504" cy="835" r="1.2" fill="#7E3BAE" opacity=".5"/><circle cx="116" cy="80" r="2.7" fill="#fff" opacity=".85"/><circle cx="116" cy="80" r="1.2" fill="#7E3BAE" opacity=".5"/></svg>
